<svg xmlns="http://www.w3.org/2000/svg" width="128" height="128" fill="none" viewBox="0 0 128 128">
  <rect width="128" height="128" rx="36" fill="#081F3D" />
  <path
    d="M64 28C56.4 34.1 47.5 37.4 38.3 37.4H36V62.4C36 80.2 47.3 96.3 64 101.8C80.7 96.3 92 80.2 92 62.4V37.4H89.7C80.5 37.4 71.6 34.1 64 28Z"
    stroke="#F4F7FB"
    stroke-width="5.5"
    stroke-linejoin="round"
  />
  <path
    d="M64 44.3C69.2 48.3 75.6 50.6 82.2 50.6V62.4C82.2 75.7 74.8 87.7 64 92.8C53.2 87.7 45.8 75.7 45.8 62.4V50.6C52.4 50.6 58.8 48.3 64 44.3Z"
    fill="#F4F7FB"
    fill-opacity="0.13"
  />
</svg>
