<svg xmlns="http://www.w3.org/2000/svg" width="64" height="64" fill="none" viewBox="0 0 64 64">
  <defs>
    <linearGradient id="a" x1="16" x2="48" y1="10" y2="54" gradientUnits="userSpaceOnUse">
      <stop stop-color="#0B4F6C" />
      <stop offset="1" stop-color="#F25F5C" />
    </linearGradient>
    <filter id="n" width="1" height="1" x="0" y="0">
      <feTurbulence baseFrequency=".8" numOctaves="4" stitchTiles="stitch" type="fractalNoise" />
      <feColorMatrix type="saturate" values="0" />
      <feComponentTransfer>
        <feFuncA type="table" tableValues="0 0.12" />
      </feComponentTransfer>
    </filter>
  </defs>
  <path
    fill="url(#a)"
    d="M32 6c8.8 7.2 18.7 7.5 22.8 7.5.7 18.7-3.4 33.7-22.8 44.5C12.6 47.2 8.5 32.2 9.2 13.5 13.3 13.5 23.2 13.2 32 6Z"
  />
  <path
    fill="#fff"
    fill-opacity=".94"
    d="M18.6 30.5c5.7-1.5 9.6-5.7 11.1-11.1.3-1 1.8-1 2 0 1.5 5.4 5.4 9.6 11.1 11.1 1 .3 1 1.8 0 2-5.7 1.5-9.6 5.4-11.1 11.1-.3 1-1.8 1-2 0-1.5-5.7-5.4-9.6-11.1-11.1-1-.3-1-1.8 0-2Z"
  />
</svg>
